<?xml version="1.0" standalone="no"?>
<!DOCTYPE svg PUBLIC "-//W3C//DTD SVG 20010904//EN"
 "http://www.w3.org/TR/2001/REC-SVG-20010904/DTD/svg10.dtd">
<svg version="1.0" xmlns="http://www.w3.org/2000/svg"
 width="1285.000000pt" height="1285.000000pt" viewBox="0 0 1285.000000 1285.000000"
 preserveAspectRatio="xMidYMid meet">
<metadata>
Created by potrace 1.14, written by Peter Selinger 2001-2017
</metadata>
<g transform="translate(0.000000,1285.000000) scale(0.100000,-0.100000)"
fill="#000000" stroke="none">
<path d="M3732 11329 c-58 -11 -152 -63 -195 -107 -33 -34 -2652 -4555 -2700
-4662 -29 -64 -29 -206 0 -270 50 -109 2668 -4628 2701 -4663 20 -21 71 -55
111 -75 l75 -37 2701 0 2701 0 75 37 c40 20 91 54 111 75 38 40 2679 4604
2707 4678 23 61 20 199 -6 255 -49 108 -2667 4628 -2701 4663 -20 21 -71 55
-111 75 l-75 37 -2675 1 c-1472 1 -2695 -2 -2719 -7z m5189 -2618 c235 -16
303 -74 304 -256 0 -79 -4 -97 -28 -147 -46 -94 -115 -145 -253 -185 -52 -15
-136 -17 -754 -22 l-694 -6 -13 -65 c-78 -382 -130 -747 -158 -1120 -17 -216
-20 -789 -5 -965 40 -469 131 -873 285 -1260 70 -179 82 -233 67 -310 -18 -87
-49 -143 -118 -213 -158 -158 -399 -186 -512 -58 -97 110 -188 410 -239 781
-22 165 -25 775 -5 985 41 422 110 795 328 1783 52 236 94 433 94 438 0 5
-241 9 -599 9 -562 0 -600 -1 -605 -17 -6 -21 -60 -233 -405 -1593 -296 -1168
-343 -1345 -440 -1665 -109 -362 -161 -498 -231 -609 -83 -131 -181 -189 -325
-189 -107 -1 -177 26 -238 91 -55 60 -72 106 -72 202 0 73 2 79 78 238 43 90
141 303 218 475 530 1175 884 2113 1114 2950 l32 117 -378 0 c-475 0 -570 -12
-782 -99 -305 -124 -512 -311 -810 -729 -69 -98 -99 -116 -175 -110 -68 6
-102 38 -102 96 0 94 323 587 580 886 312 363 633 542 1015 565 180 11 3670
12 3826 2z"/>
</g>
</svg>
