<?xml version="1.0" standalone="no"?>
<!DOCTYPE svg PUBLIC "-//W3C//DTD SVG 20010904//EN"
 "http://www.w3.org/TR/2001/REC-SVG-20010904/DTD/svg10.dtd">
<svg version="1.0" xmlns="http://www.w3.org/2000/svg"
 width="2362.000000pt" height="2362.000000pt" viewBox="0 0 2362.000000 2362.000000"
 preserveAspectRatio="xMidYMid meet">
<metadata>
Created by potrace 1.14, written by Peter Selinger 2001-2017
</metadata>
<g transform="translate(0.000000,2362.000000) scale(0.100000,-0.100000)"
fill="#000000" stroke="none">
<path d="M6268 22035 c-2 -1 -23 -5 -48 -8 -154 -19 -380 -154 -481 -288 -14
-18 -113 -185 -219 -369 -106 -184 -201 -347 -211 -362 -10 -15 -19 -29 -19
-32 0 -2 -57 -102 -127 -223 -69 -120 -134 -233 -145 -250 -10 -18 -26 -48
-36 -65 -22 -39 -215 -372 -315 -543 -38 -66 -81 -140 -95 -164 -24 -44 -291
-507 -407 -706 -32 -55 -69 -120 -83 -145 -13 -25 -37 -65 -52 -90 -15 -25
-90 -153 -166 -285 -316 -551 -553 -961 -882 -1530 -142 -245 -275 -475 -314
-545 -11 -19 -59 -102 -107 -185 -48 -82 -168 -289 -266 -460 -97 -170 -186
-322 -196 -337 -11 -15 -19 -29 -19 -32 0 -3 -336 -590 -370 -646 -19 -32 -74
-127 -98 -170 -14 -25 -28 -49 -32 -55 -7 -8 -131 -224 -217 -375 -19 -33
-220 -381 -267 -461 -12 -20 -76 -133 -144 -250 -68 -118 -128 -221 -133 -229
-5 -8 -64 -109 -130 -225 -67 -115 -131 -226 -142 -245 -11 -19 -34 -60 -50
-90 -17 -30 -49 -86 -72 -125 -23 -38 -57 -97 -76 -130 -19 -33 -38 -68 -44
-77 -59 -99 -146 -258 -141 -258 2 0 -5 -28 -16 -62 -22 -73 -31 -240 -17
-335 5 -34 20 -93 33 -130 24 -69 33 -87 120 -235 26 -45 60 -103 74 -128 14
-25 49 -85 77 -135 29 -49 91 -157 139 -240 47 -82 90 -157 95 -165 5 -8 68
-116 139 -240 249 -431 350 -607 517 -895 92 -159 178 -309 191 -332 46 -80
154 -268 164 -283 6 -8 13 -22 17 -30 4 -8 26 -47 49 -86 45 -76 463 -798 552
-954 30 -52 63 -110 73 -127 11 -18 27 -48 37 -65 11 -18 68 -118 129 -223 61
-104 118 -203 127 -220 9 -16 26 -46 37 -65 27 -44 251 -433 422 -730 139
-243 192 -334 243 -420 18 -30 151 -260 295 -510 144 -250 270 -468 280 -485
10 -16 24 -41 32 -55 22 -41 57 -101 97 -170 21 -36 47 -81 57 -100 26 -45
410 -710 422 -730 11 -18 291 -504 381 -660 20 -36 77 -135 127 -220 159 -275
275 -474 295 -510 11 -19 47 -82 81 -140 33 -58 78 -136 100 -175 22 -38 48
-82 58 -97 11 -15 19 -29 19 -32 0 -13 109 -188 144 -232 101 -126 306 -245
465 -271 55 -9 11130 -11 11181 -2 92 17 268 93 328 143 7 6 34 29 60 51 70
58 109 111 212 290 50 88 96 167 101 175 5 8 48 83 95 165 48 83 109 190 138
238 28 49 60 105 72 125 11 20 65 114 119 207 183 316 195 338 195 346 0 5 5
9 10 9 6 0 10 5 10 10 0 6 21 45 46 88 25 42 50 86 56 97 7 11 52 90 101 175
50 85 241 416 425 735 184 319 343 594 353 610 11 17 22 36 26 44 4 8 42 76
86 150 43 75 89 154 101 176 22 39 150 261 364 630 57 99 153 266 214 370 60
105 113 197 119 205 13 22 327 566 357 620 14 25 65 115 115 200 89 155 116
201 220 380 145 251 243 420 270 470 17 30 48 83 69 118 21 34 38 64 38 66 0
2 17 33 38 67 22 35 50 84 64 109 23 40 181 315 716 1240 90 157 172 299 182
315 9 17 86 149 170 295 84 146 203 353 265 460 62 107 136 236 165 285 133
228 156 276 176 363 21 87 25 247 8 340 -22 131 -11 109 -424 822 -123 212
-231 401 -242 420 -11 19 -27 49 -37 65 -10 17 -44 75 -76 130 -85 148 -86
150 -165 285 -40 69 -82 141 -92 160 -11 19 -25 44 -31 55 -14 23 -135 233
-165 285 -11 19 -40 70 -66 113 -25 43 -46 80 -46 83 0 3 -9 17 -19 32 -16 23
-229 390 -302 521 -14 25 -67 118 -118 206 -52 88 -102 175 -112 193 -45 79
-102 177 -189 327 -51 88 -100 174 -110 190 -109 191 -403 698 -419 725 -12
19 -27 47 -33 63 -7 15 -16 27 -20 27 -4 0 -8 4 -8 9 0 6 -29 60 -65 121 -36
61 -76 130 -89 153 -13 23 -39 69 -58 102 -41 70 -223 386 -248 430 -10 17
-64 111 -122 210 -57 99 -110 189 -116 200 -27 48 -213 371 -222 385 -44 73
-176 308 -178 318 -2 6 -8 12 -13 12 -5 0 -9 4 -9 8 0 5 -21 45 -47 91 -27 45
-57 99 -69 119 -11 20 -121 210 -244 422 -122 212 -234 405 -248 430 -37 67
-191 333 -202 350 -6 8 -14 24 -20 35 -5 11 -22 41 -37 67 -15 25 -55 93 -88
150 -33 57 -66 115 -75 129 -8 14 -37 65 -65 113 -27 48 -55 95 -60 104 -6 9
-21 35 -33 57 -12 22 -31 54 -41 70 -10 17 -29 50 -43 75 -14 25 -58 101 -98
170 -40 69 -90 154 -110 190 -43 78 -224 390 -254 440 -12 19 -28 48 -36 64
-24 47 -139 164 -204 209 -75 51 -151 88 -242 118 l-69 23 -5567 2 c-3062 1
-5568 0 -5570 -1z"/>
</g>
</svg>
