<?xml version="1.0" standalone="no"?>
<!DOCTYPE svg PUBLIC "-//W3C//DTD SVG 20010904//EN"
 "http://www.w3.org/TR/2001/REC-SVG-20010904/DTD/svg10.dtd">
<svg version="1.0" xmlns="http://www.w3.org/2000/svg"
 width="861.000000pt" height="861.000000pt" viewBox="0 0 861.000000 861.000000"
 preserveAspectRatio="xMidYMid meet">
<metadata>
Created by potrace 1.11, written by Peter Selinger 2001-2013
</metadata>
<g transform="translate(0.000000,861.000000) scale(0.100000,-0.100000)"
fill="#000000" stroke="none">
<path d="M3067 6563 c-1 -1 -36 -3 -77 -4 -41 -1 -92 -6 -114 -10 -23 -4 -57
-10 -76 -13 -135 -21 -323 -113 -497 -242 -101 -75 -312 -287 -388 -389 -33
-44 -63 -82 -67 -85 -20 -16 -302 -452 -356 -552 -73 -135 -79 -169 -37 -206
25 -21 36 -24 86 -20 37 3 65 11 78 22 11 10 59 75 108 144 213 307 399 491
629 623 74 43 247 115 299 125 11 2 43 8 70 14 28 5 70 12 95 16 55 8 800 12
805 4 7 -11 -161 -565 -283 -935 -95 -286 -274 -777 -351 -960 -5 -11 -26 -63
-47 -115 -45 -114 -185 -453 -207 -501 -9 -19 -54 -122 -100 -229 -102 -234
-260 -582 -351 -775 -81 -170 -100 -230 -93 -300 5 -51 33 -124 59 -155 30
-36 87 -68 144 -82 181 -44 335 38 431 232 35 70 113 283 128 348 2 9 23 78
45 152 124 406 246 846 275 992 2 9 20 79 40 155 37 140 174 675 180 703 5 23
89 345 155 601 33 124 61 236 64 250 3 13 11 49 20 79 8 30 42 163 76 295 34
132 64 242 67 245 2 3 270 5 594 5 l589 0 -6 -30 c-3 -16 -26 -113 -51 -215
-24 -102 -46 -194 -49 -205 -2 -11 -26 -117 -53 -235 -28 -118 -52 -226 -55
-240 -3 -14 -12 -59 -21 -100 -9 -41 -19 -86 -21 -100 -3 -14 -8 -34 -11 -45
-3 -11 -7 -29 -9 -40 -4 -28 -13 -72 -24 -125 -34 -161 -73 -400 -114 -695 -3
-16 -8 -66 -11 -110 -4 -44 -8 -91 -11 -105 -26 -158 -25 -880 0 -1030 3 -14
7 -47 10 -75 10 -87 32 -205 53 -285 64 -240 160 -389 271 -421 162 -47 360
55 449 230 24 48 28 67 27 136 0 71 -5 91 -42 177 -92 215 -193 580 -227 818
-3 25 -8 52 -10 60 -2 8 -7 36 -10 62 -3 26 -9 79 -15 117 -5 39 -12 105 -16
148 -3 43 -7 89 -10 103 -16 105 -23 541 -11 735 10 165 17 255 22 303 11 96
15 130 19 179 5 49 32 255 41 313 2 14 11 70 20 125 9 55 20 118 25 140 5 22
11 56 14 75 9 58 16 94 22 112 3 10 8 30 10 45 14 75 35 167 40 172 3 3 301 6
662 7 439 1 675 5 711 13 186 39 285 150 284 322 0 127 -59 196 -189 220 -42
8 -585 12 -1882 13 -1003 0 -1824 0 -1825 -1z"/>
</g>
</svg>
